<?xml version="1.0" encoding="UTF-8"?>
<svg id="Layer_2" data-name="Layer 2" xmlns="http://www.w3.org/2000/svg" viewBox="0 0 193.56 76.21">
  <g id="Layer_1-2" data-name="Layer 1">
    <g>
      <g>
        <g>
          <path d="m64.69,64.37v-14.87c0-2.41-.23-4.38-.7-6.01-.52-1.82-1.43-3.46-2.67-4.84-1.5-1.7-3.23-2.92-5.15-3.63-1.76-.65-4.03-.97-6.93-.97h-3.13v-14.54h-22.6v-6.63L.45,36.47C1.12,15.19,19.42-1.62,41.21.12c18.53,1.49,33.39,16.65,34.51,35.2.69,11.37-3.66,21.72-11.03,29.05Z" fill="#141734"/>
          <g>
            <path d="m26.68,5.24s-.05-1.84.46-1.84.48,1.87.48,1.87l2.31,1.95.1.61-2.44-1.45-.18,2.09.68.77.02.23-.95-.23-.99.23.02-.23.75-.77-.25-2.09-2.45,1.3.11-.46,2.33-1.98Z" fill="#fff"/>
            <path d="m21.48,7.62s-.05-1.84.46-1.84.48,1.87.48,1.87l2.31,1.95.1.61-2.44-1.45-.18,2.09.68.77.02.23-.95-.23-.99.23.02-.23.75-.77-.25-2.09-2.45,1.3.11-.46,2.33-1.98Z" fill="#fff"/>
            <path d="m14.87,12.62s-.05-1.84.46-1.84.48,1.87.48,1.87l2.31,1.95.1.61-2.44-1.45-.18,2.09.68.77.02.23-.95-.23-.99.23.02-.23.75-.77-.25-2.09-2.45,1.3.11-.46,2.33-1.98Z" fill="#fff"/>
            <path d="m9.08,18.69s-.05-1.84.46-1.84.48,1.87.48,1.87l2.31,1.95.1.61-2.44-1.45-.18,2.09.68.77.02.23-.95-.23-.99.23.02-.23.75-.77-.25-2.09-2.45,1.3.11-.46,2.33-1.98Z" fill="#fff"/>
            <path d="m33.62,3.51s-.05-1.84.46-1.84.48,1.87.48,1.87l2.31,1.95.1.61-2.44-1.45-.18,2.09.68.77.02.23-.95-.23-.99.23.02-.23.75-.77-.25-2.09-2.45,1.3.11-.46,2.33-1.98Z" fill="#fff"/>
            <path d="m43.45,2.83s-.05-1.84.46-1.84.48,1.87.48,1.87l2.31,1.95.1.61-2.44-1.45-.18,2.09.68.77.02.23-.95-.23-.99.23.02-.23.75-.77-.25-2.09-2.45,1.3.11-.46,2.33-1.98Z" fill="#fff"/>
            <path d="m40.56,8.9s-.05-1.84.46-1.84.48,1.87.48,1.87l2.31,1.95.1.61-2.44-1.45-.18,2.09.68.77.02.23-.95-.23-.99.23.02-.23.75-.77-.25-2.09-2.45,1.3.11-.46,2.33-1.98Z" fill="#fff"/>
            <path d="m49.9,19.65s-.05-1.84.46-1.84.48,1.87.48,1.87l2.31,1.95.1.61-2.44-1.45-.18,2.09.68.77.02.23-.95-.23-.99.23.02-.23.75-.77-.25-2.09-2.45,1.3.11-.46,2.33-1.98Z" fill="#fff"/>
            <path d="m56.38,17.38s-.05-1.84.46-1.84.48,1.87.48,1.87l2.31,1.95.1.61-2.44-1.45-.18,2.09.68.77.02.23-.95-.23-.99.23.02-.23.75-.77-.25-2.09-2.45,1.3.11-.46,2.33-1.98Z" fill="#fff"/>
            <path d="m61.54,14.35s-.05-1.84.46-1.84.48,1.87.48,1.87l2.31,1.95.1.61-2.44-1.45-.18,2.09.68.77.02.23-.95-.23-.99.23.02-.23.75-.77-.25-2.09-2.45,1.3.11-.46,2.33-1.98Z" fill="#fff"/>
            <path d="m62.17,21.51s-.05-1.84.46-1.84.48,1.87.48,1.87l2.31,1.95.1.61-2.44-1.45-.18,2.09.68.77.02.23-.95-.23-.99.23.02-.23.75-.77-.25-2.09-2.45,1.3.11-.46,2.33-1.98Z" fill="#fff"/>
            <path d="m66.12,26.16s-.05-1.84.46-1.84.48,1.87.48,1.87l2.31,1.95.1.61-2.44-1.45-.18,2.09.68.77.02.23-.95-.23-.99.23.02-.23.75-.77-.25-2.09-2.45,1.3.11-.46,2.33-1.98Z" fill="#fff"/>
            <path d="m67.96,48.24s-.05-1.84.46-1.84.48,1.87.48,1.87l2.31,1.95.1.61-2.44-1.45-.18,2.09.68.77.02.23-.95-.23-.99.23.02-.23.75-.77-.25-2.09-2.45,1.3.11-.46,2.33-1.98Z" fill="#fff"/>
            <path d="m65.06,35.79s-.05-1.84.46-1.84.48,1.87.48,1.87l2.31,1.95.1.61-2.44-1.45-.18,2.09.68.77.02.23-.95-.23-.99.23.02-.23.75-.77-.25-2.09-2.45,1.3.11-.46,2.33-1.98Z" fill="#fff"/>
            <path d="m70.85,40.23s-.05-1.84.46-1.84.48,1.87.48,1.87l2.31,1.95.1.61-2.44-1.45-.18,2.09.68.77.02.23-.95-.23-.99.23.02-.23.75-.77-.25-2.09-2.45,1.3.11-.46,2.33-1.98Z" fill="#fff"/>
            <path d="m71.9,32.23s-.05-1.84.46-1.84.48,1.87.48,1.87l2.31,1.95.1.61-2.44-1.45-.18,2.09.68.77.02.23-.95-.23-.99.23.02-.23.75-.77-.25-2.09-2.45,1.3.11-.46,2.33-1.98Z" fill="#fff"/>
            <path d="m57.36,26.78s-.05-1.84.46-1.84.48,1.87.48,1.87l2.31,1.95.1.61-2.44-1.45-.18,2.09.68.77.02.23-.95-.23-.99.23.02-.23.75-.77-.25-2.09-2.45,1.3.11-.46,2.33-1.98Z" fill="#fff"/>
            <path d="m49.85,27.32s-.05-1.84.46-1.84.48,1.87.48,1.87l2.31,1.95.1.61-2.44-1.45-.18,2.09.68.77.02.23-.95-.23-.99.23.02-.23.75-.77-.25-2.09-2.45,1.3.11-.46,2.33-1.98Z" fill="#fff"/>
            <path d="m46.35,13.69s-.05-1.84.46-1.84.48,1.87.48,1.87l2.31,1.95.1.61-2.44-1.45-.18,2.09.68.77.02.23-.95-.23-.99.23.02-.23.75-.77-.25-2.09-2.45,1.3.11-.46,2.33-1.98Z" fill="#fff"/>
            <path d="m54.47,9.58s-.05-1.84.46-1.84.48,1.87.48,1.87l2.31,1.95.1.61-2.44-1.45-.18,2.09.68.77.02.23-.95-.23-.99.23.02-.23.75-.77-.25-2.09-2.45,1.3.11-.46,2.33-1.98Z" fill="#fff"/>
            <path d="m48.68,5.24s-.05-1.84.46-1.84.48,1.87.48,1.87l2.31,1.95.1.61-2.44-1.45-.18,2.09.68.77.02.23-.95-.23-.99.23.02-.23.75-.77-.25-2.09-2.45,1.3.11-.46,2.33-1.98Z" fill="#fff"/>
            <path d="m38.26,14.35s-.05-1.84.46-1.84.48,1.87.48,1.87l2.31,1.95.1.61-2.44-1.45-.18,2.09.68.77.02.23-.95-.23-.99.23.02-.23.75-.77-.25-2.09-2.45,1.3.11-.46,2.33-1.98Z" fill="#fff"/>
            <path d="m32.47,10.65s-.05-1.84.46-1.84.48,1.87.48,1.87l2.31,1.95.1.61-2.44-1.45-.18,2.09.68.77.02.23-.95-.23-.99.23.02-.23.75-.77-.25-2.09-2.45,1.3.11-.46,2.33-1.98Z" fill="#fff"/>
            <path d="m26.68,14.35s-.05-1.84.46-1.84.48,1.87.48,1.87l2.31,1.95.1.61-2.44-1.45-.18,2.09.68.77.02.23-.95-.23-.99.23.02-.23.75-.77-.25-2.09-2.45,1.3.11-.46,2.33-1.98Z" fill="#fff"/>
          </g>
        </g>
        <g>
          <path d="m0,42.66l19.51-19.96v15.35h4.18v4.61h-4.25v32.69H4.39v-32.69H0Z" fill="blue"/>
          <path d="m27.14,75.35V23.51h14.98v51.84h-14.98Zm18.58,0v-37.3h3.53c2.4,0,4.25.24,5.54.72,1.3.48,2.47,1.32,3.53,2.52.86.96,1.48,2.06,1.84,3.31.36,1.25.54,2.88.54,4.9v25.85h-14.98Z" fill="#f7931e"/>
        </g>
      </g>
      <g>
        <path d="m100.1,37.91v33.77c.86.15,1.73.22,2.59.22,4.9,0,9.26-2.74,13.1-8.21l.94-1.51v6.62c-.86,1.2-2.02,2.35-3.46,3.46-3.41,2.64-7.13,3.96-11.16,3.96-1.39,0-2.93-.19-4.61-.58-3.79-.96-6.73-2.53-8.82-4.7-2.09-2.17-3.56-5.23-4.43-9.18-.14-.72-.28-1.57-.4-2.53-.12-.96-.18-2.02-.18-3.18,0-2.07.24-4.13.72-6.18.48-2.05,1.34-3.96,2.59-5.75,1.92-2.75,4.68-4.6,8.28-5.56,1.2-.29,2.81-.51,4.82-.65Zm3.74,18.58v-18.5c.29-.05.7-.07,1.22-.07,3.7,0,6.78,1.45,9.25,4.36,2.47,2.9,3.71,6.8,3.71,11.7v2.52h-14.18Z" fill="#141734"/>
        <path d="m137.75,38.12v37.21c0,.24-.17.36-.5.36-.29,0-.67-.06-1.15-.17-.48-.11-.75-.17-.79-.17-4.8,0-8.46-1.49-10.98-4.46-2.52-2.98-3.78-7.46-3.78-13.46,0-1.3.05-2.33.14-3.1.1-.77.14-1.37.14-1.8.48-4.7,1.91-8.29,4.28-10.76,2.38-2.47,5.72-3.71,10.04-3.71h1.55c.41,0,.76.02,1.04.07Zm3.74,37.22V23.51h14.98v51.84h-14.98Z" fill="#141734"/>
        <path d="m159.79,63.39v-25.34h15.05v37.3c0,.14-.1.22-.29.22-.58-.19-.94-.29-1.08-.29-4.8,0-8.28-.98-10.44-2.95-2.16-1.97-3.24-4.94-3.24-8.93Zm18.79,11.95v-37.3h14.98v25.34c0,3.98-1.08,6.96-3.24,8.93-2.16,1.97-5.64,2.95-10.44,2.95l-1.3.07Z" fill="#141734"/>
      </g>
    </g>
  </g>
</svg>