<?xml version="1.0" encoding="utf-8"?>
<!-- Generator: Adobe Illustrator 17.1.0, SVG Export Plug-In . SVG Version: 6.00 Build 0)  -->
<!DOCTYPE svg PUBLIC "-//W3C//DTD SVG 1.1//EN" "http://www.w3.org/Graphics/SVG/1.1/DTD/svg11.dtd">
<svg version="1.1" id="Layer_1" xmlns="http://www.w3.org/2000/svg" xmlns:xlink="http://www.w3.org/1999/xlink" x="0px" y="0px"
	 viewBox="0 0 419 180" enable-background="new 0 0 419 180" xml:space="preserve">
<g>
	<defs>
		<rect id="SVGID_1_" width="419" height="180"/>
	</defs>
	<clipPath id="SVGID_2_">
		<use xlink:href="#SVGID_1_"  overflow="visible"/>
	</clipPath>
	<path clip-path="url(#SVGID_2_)" fill="#A81D35" d="M30.9,0.6c0,0,6.5,7.2,6.5,23.9c0,23.7-26.3,42.5-26.3,66.7
		c0,29.2,17,38.4,17,50.8c0,5.8-1.7,8.1-1.7,8.1S0,127.9,0,97.9c0-27.2,17.1-42,24.8-53.4c5.7-8.3,6-10.1,5.4-11.2
		c0,0-2.2-3.6-2.2-9c0-5.3,3.6-13,3.6-17.5C31.7,2.8,30.9,0.6,30.9,0.6"/>
	<path clip-path="url(#SVGID_2_)" fill="#A81D35" d="M88.9,52c-1.5-2.3-13.9-5.6-18-5.9l-1.3,6.2c0,0,4.2,0.7,9.8,3.6
		c7,3.7,8.3,6.7,8.3,6.7S90.4,54.7,88.9,52"/>
	<path clip-path="url(#SVGID_2_)" fill="#A81D35" d="M84.9,149.3c0,0,2.1-6.6,1.7-12.6c-0.7-12.3-6.4-17.5-20.3-31.8
		c-7.5-7.7-4.6-17-4.6-17s-10.7-4-8.6-12.4c1.2-5,6.8-5.5,11.7-6.1c12.9-1.4,13.4-6.8,14.5-9.5c0,0,6.8,3.8,5.1,9.3
		c-1.7,5.5-7.3,5.5-9.9,5.3c-3.3-0.3-13.4-2.3-14.8,2.1c-1.3,4.1,3.4,8.1,11.5,10.3C83.1,90,87.7,86,87.7,86s-0.2,4.5-2.1,6.2
		c-2.1,1.9-6.8,1.4-6.8,1.4s-3.1,4,4.1,8.9c5,3.4,15.6,7.1,15.6,20.7C98.7,138.6,84.9,149.3,84.9,149.3"/>
</g>
<g>
	<defs>
		<rect id="SVGID_3_" y="0.6" width="418.2" height="179.3"/>
	</defs>
	<clipPath id="SVGID_4_">
		<use xlink:href="#SVGID_3_"  overflow="visible"/>
	</clipPath>
	<g clip-path="url(#SVGID_4_)">
		<defs>
			<rect id="SVGID_5_" width="419" height="180"/>
		</defs>
		<clipPath id="SVGID_6_">
			<use xlink:href="#SVGID_5_"  overflow="visible"/>
		</clipPath>
		<path clip-path="url(#SVGID_6_)" fill="#A81D35" d="M63.5,81.2c0,0,2.8-3.6,8.4-3.2c6.4,0.5,10.5,0.5,15-0.6
			c8.5-2.2,11.7-6.7,11.7-6.7s-3.1,7.2-10.2,10.6C85,83,79.9,83.6,74.3,82C65.5,79.5,63.5,81.2,63.5,81.2"/>
		<path clip-path="url(#SVGID_6_)" fill="#A81D35" d="M67.1,55.1c3.4,0.5,7.6,2.1,9.2,3c0,0-0.2,3.6-3.4,5.6
			c-3.2,2-7.6,2.2-11.9,2.9c-5.1,0.7-10.1,3.1-11.1,7.7c-2.4,10.4,8.3,15.6,8.3,15.6s-2.4,8.9,6.4,17.9
			C77.6,121,83.2,126.5,83.2,138c0,22.1-23.4,42-23.4,42s12.1-14.8,12.1-32.5c0-15.8-8.8-19.7-15.4-25.4c-5.6-4.8-10.1-11-10.7-24.1
			c-1.1,6.7-4.7,9.6-4.7,17c0,5.5,1.9,9.3,1.9,9.3s-12.8-7.9-12.8-22.6c0-9.9,6.7-19.2,6.7-26.1c-2.1,7.2-12,14.5-12,28.2
			c0,11.9,5.4,19.4,5.4,19.4s-14.9-11.1-14.9-31.7c0-18.7,17-35.5,17-35.5s-1.1-11.5,5.7-11.5c4.1,0,5.2,3.4,5.2,3.4
			s11-4.1,24.4-2.2l-1.1,5.9l-2.6-0.3c0,0,0.2,1.1,0.2,1.8c0,2.3-1.9,4.2-4.2,4.2c-2.3,0-4.2-1.9-4.2-4.2c0-0.9,0.3-1.7,0.8-2.4
			c-4.9-0.2-14.7,1.3-14.7,1.8c0,0.3,6.8,0.1,10.6,0.7c0,4.2,3.3,7.5,7.5,7.5C63.4,60.7,66.3,58.4,67.1,55.1"/>
	</g>
</g>
<g>
	<defs>
		<rect id="SVGID_7_" width="419" height="180"/>
	</defs>
	<clipPath id="SVGID_8_">
		<use xlink:href="#SVGID_7_"  overflow="visible"/>
	</clipPath>
	<path clip-path="url(#SVGID_8_)" fill="#A81D35" d="M45.2,140.5c0-1.3,1.1-2.4,2.5-2.4c1.3,0,2.4,1.1,2.4,2.5
		c0,1.3-1.1,2.4-2.5,2.4C46.2,142.9,45.2,141.8,45.2,140.5 M34.8,157.6c0,0,1.8-1.4,3.6-2c1.8-0.6,3.7-1.3,4.9-2.8
		c1.2-1.5,1.9-3.7,2.2-5c0.3-1.3,0.4-2.6,2-2.8c1.6,0.3,1.8,1.6,2,2.9c0.2,1.3,0.9,3.5,2,5.1c1.1,1.6,3,2.3,4.8,3
		c1.8,0.7,3.6,2.1,3.6,2.1s-0.7-2.2-0.7-4.1c-0.1-1.9-0.1-3.9-1.2-5.5c-1.1-1.6-2.9-3-4.1-3.6c-1.1-0.6-2.3-1.2-2-2.8
		c0.8-1.5,2-1.1,3.3-0.9c1.3,0.2,3.6,0.2,5.5-0.4c1.9-0.6,3.1-2.2,4.3-3.6c1.2-1.5,3.1-2.8,3.1-2.8s-2.4-0.1-4.2-0.6
		c-1.8-0.5-3.8-1.2-5.6-0.6c-1.9,0.6-3.8,1.9-4.7,2.7c-1,0.9-1.8,1.8-3.3,1.1c-1.2-1.2-0.4-2.3,0.1-3.5c0.6-1.2,1.3-3.4,1.3-5.3
		c0-1.9-1.1-3.6-2.1-5.2c-1-1.6-1.7-3.8-1.7-3.8s-0.7,2.2-1.8,3.8c-1.1,1.6-2.3,3.2-2.3,5.1c0,1.9,0.6,4.2,1.2,5.3
		c0.5,1.2,1.2,2.3,0,3.5c-1.5,0.7-2.3-0.3-3.2-1.2c-0.9-0.9-2.8-2.3-4.6-2.9c-1.8-0.6-3.8-0.1-5.6,0.4c-1.8,0.5-4.1,0.4-4.1,0.4
		s1.8,1.5,2.9,2.9c1.2,1.5,2.4,3.1,4.2,3.8c1.8,0.6,4.1,0.7,5.4,0.6c1.3-0.1,2.6-0.4,3.3,1.1c0.2,1.6-1,2.1-2.1,2.7
		c-1.1,0.6-3,2-4.2,3.5c-1.2,1.5-1.2,3.6-1.4,5.5C35.5,155.4,34.8,157.6,34.8,157.6"/>
	<path clip-path="url(#SVGID_8_)" fill="#A81D35" d="M96.6,94.4c0-1.1,0.9-2.1,2.1-2.1c1.1,0,2.1,0.9,2.1,2.1c0,1.1-0.9,2.1-2.1,2.1
		C97.6,96.4,96.6,95.5,96.6,94.4 M106.4,89.2c-0.3,0.1-0.6,0.2-0.9,0.2c-1.1,0-2.1-0.9-2.1-2.1c0-1.1,0.9-2.1,2.1-2.1l0.4-0.1
		c-0.6-3.5-1.6-6.8-2.9-10.1c0,0.9-0.3,2.1-1.1,2.8c-1.7,1.4-5.1,3.4-2.4,7.2c1.5,2.1,1.3,2.8,0.6,3.4c-1,0.9-2.1,0-3.3-1.2
		c-2-1.9-3.4-2.3-5.1-1.1c-2,1.4-1.5,3.3-1.1,4.9c0.5,1.6,0.5,1.8,0.6,3.1c-0.1,1.3-0.1,1.5-0.6,3.1c-0.5,1.6-1,3.5,1.1,4.9
		c1.7,1.1,3.1,0.7,5.1-1.1c1.3-1.2,2.4-2,3.3-1.2c0.8,0.7,0.9,1.4-0.6,3.5c-2.7,3.8,0.7,5.8,2.4,7.2c0.8,0.7,1.1,1.9,1.1,2.8
		c1.3-3.3,2.3-6.6,2.9-10.2l-0.4,0c-1.1,0-2.1-0.9-2.1-2.1c0-1.1,0.9-2.1,2.1-2.1c0.3,0,0.7,0.1,0.9,0.2l0.1-2.5
		c-0.3,0.1-0.7,0.2-1.1,0.2c-1.5,0-2.7-1.2-2.7-2.7c0-1.5,1.2-2.7,2.7-2.7c0.4,0,0.8,0.1,1.1,0.2L106.4,89.2z"/>
	<path clip-path="url(#SVGID_8_)" d="M120.2,88.9h11.6c9.1,0,15.3-4.3,15.3-15s-6.1-15-15.3-15h-11.6V88.9 M127.7,65.3h4.2
		c5.6,0,7.7,3.8,7.7,8.7c0,4.8-2,8.7-7.6,8.7h-4.3V65.3z M173.9,88.9v-5.8h-15.8V76h13.6v-5.8h-13.6v-5.5h14.6v-5.8h-22v29.9H173.9z
		 M187.7,88.9h6.8V65.6h0.1l6.1,23.3h6.6l5.9-23.3h0.1v23.3h7.1V58.9h-10.9L204,81.2h-0.1l-5.3-22.2h-11V88.9z M245.8,73.9
		c0,4.6-2.1,9.5-7.7,9.5c-5.9,0-7.7-5.1-7.7-9.5c0-6.7,3.3-9.5,7.7-9.5C243.7,64.4,245.8,69.2,245.8,73.9z M253.3,73.9
		c0-8.4-5.6-15.8-15.1-15.8c-9.5,0-15.1,7.4-15.1,15.8s5.6,15.8,15.1,15.8C247.7,89.7,253.3,82.3,253.3,73.9z M255.9,88.9h6.8V70.1
		h0.1l11,18.8h7.5V58.9h-6.8v19.1h-0.1l-10.9-19.1h-7.6V88.9z M283.8,64.8h7.8v24.1h7.5V64.8h7.8v-5.8h-23.1V64.8z M309.9,88.9h7.5
		v-12h14.3v-5.8h-14.3v-6.3h15.4v-5.8h-22.9V88.9z M357.5,73.9c0,4.6-2.1,9.5-7.7,9.5c-5.9,0-7.7-5.1-7.7-9.5c0-6.7,3.3-9.5,7.7-9.5
		C355.4,64.4,357.5,69.2,357.5,73.9z M365,73.9c0-8.4-5.6-15.8-15.1-15.8c-9.5,0-15.1,7.4-15.1,15.8s5.6,15.8,15.1,15.8
		C359.4,89.7,365,82.3,365,73.9z M375.3,64.5h6.9c2.4,0,4,1.3,4,4s-1.6,4-4,4h-6.9V64.5z M367.8,88.9h7.5V78.1h4.8l5.9,10.8h8.4
		l-6.9-12c3.7-1.1,6.2-4.2,6.2-8.1c0-6.7-4.1-9.8-10.9-9.8h-15V88.9z M395,64.8h7.8v24.1h7.5V64.8h7.8v-5.8H395V64.8z"/>
	<path clip-path="url(#SVGID_8_)" d="M151,95h-9.1v23c0,4.1-1.6,7.1-6.3,7.1c-4.7,0-6.3-3-6.3-7.1V95h-9.1v23.7
		c0,10,8.4,13.7,15.3,13.7c7,0,15.4-3.7,15.4-13.7V95 M155.2,131.4h8.2v-22.9h0.1l13.3,22.9h9.1V95h-8.2v23.3h-0.1L164.4,95h-9.2
		V131.4z M190.2,131.4h9.1V95h-9.1V131.4z M214.2,131.4h9.6L236.3,95h-9.5l-7.6,26H219l-7.4-26H202L214.2,131.4z M266.3,131.4v-7.1
		h-19.1v-8.6h16.4v-7.1h-16.4v-6.7h17.6V95h-26.7v36.4H266.3z M279.1,101.7h8.3c2.9,0.1,4.8,1.5,4.8,4.9c0,3.4-1.9,4.9-4.8,4.9h-8.3
		V101.7z M270.1,131.4h9.1v-13.1h5.8l7.1,13.1h10.1l-8.3-14.6c4.5-1.3,7.5-5.1,7.5-9.8c0-8.2-5-12-13.1-12h-18.1V131.4z M302.4,125
		c4.9,5.4,10.2,7.4,16.3,7.4c6.8,0,16.6-2,16.6-13c0-7-6-9.2-13.2-10.4l-3.5-0.6c-3.5-0.6-5-1.5-5-3.5c0-2.4,3.1-3.7,5.1-3.7
		c3.8,0,7.3,1.7,9.7,4.6l6.9-5c-4.1-4.6-10-7-16-7c-7.7,0-14.8,3.6-14.8,12.4c0,5.4,3.7,9,10.4,10l7.5,1.2c2.7,0.5,4.1,1.4,4.1,3.2
		c0,3.2-4.4,4.2-6.8,4.2c-4.3,0-7.3-1.7-10.5-4.6L302.4,125z M339.7,131.4h9.1V95h-9.1V131.4z M351.9,102.1h9.5v29.4h9.1v-29.4h9.5
		V95h-28V102.1z M395.4,131.4h9.1v-17L418.2,95h-10.6l-7.7,12.6L392.2,95h-10.6l13.8,19.4V131.4z"/>
	<path clip-path="url(#SVGID_8_)" d="M120.2,158.6H133v-4.2h-7.8v-15.8h-5V158.6 M151.4,158.6v-3.9h-10.5V150h9.1v-3.9h-9.1v-3.6
		h9.7v-3.9h-14.7v20H151.4z M153.4,158.6h5v-20h-5V158.6z M178.4,143.2c-1.8-3.3-4.4-5.2-8.4-5.2c-6.2,0-9.7,4.9-9.7,10.5
		c0,5.6,3.7,10.5,10.1,10.5c3.4,0,6.3-2,8-5.1l-4-1.9c-0.8,1.8-2.7,2.8-4.1,2.8c-3.9,0-5.1-3.4-5.1-6.3c0-4.5,2.2-6.3,4.9-6.3
		c1.7,0,3.4,1.1,4.1,3L178.4,143.2z M195.9,158.6v-3.9h-10.5V150h9.1v-3.9h-9.1v-3.6h9.7v-3.9h-14.7v20H195.9z M197.2,155
		c2.7,3,5.6,4.1,9,4.1c3.7,0,9.1-1.1,9.1-7.1c0-3.8-3.3-5-7.3-5.7l-1.9-0.3c-1.9-0.3-2.8-0.8-2.8-1.9c0-1.3,1.7-2,2.8-2
		c2.1,0,4,0.9,5.4,2.5l3.8-2.7c-2.2-2.5-5.5-3.8-8.8-3.8c-4.3,0-8.2,2-8.2,6.8c0,2.9,2,4.9,5.7,5.5l4.1,0.7c1.5,0.3,2.2,0.8,2.2,1.8
		c0,1.7-2.4,2.3-3.7,2.3c-2.4,0-4-0.9-5.8-2.5L197.2,155z M216.1,142.5h5.2v16.1h5v-16.1h5.2v-3.9h-15.4V142.5z M249.9,158.6v-3.9
		h-10.5V150h9.1v-3.9h-9.1v-3.6h9.7v-3.9h-14.7v20H249.9z M256.4,142.3h4.6c1.6,0,2.7,0.8,2.7,2.7c0,1.8-1.1,2.7-2.7,2.7h-4.6V142.3
		z M251.4,158.6h5v-7.2h3.2l3.9,7.2h5.6l-4.6-8c2.5-0.7,4.1-2.8,4.1-5.4c0-4.5-2.7-6.6-7.2-6.6h-10V158.6z"/>
</g>
</svg>
